<?xml version="1.0" standalone="no"?>
<!DOCTYPE svg PUBLIC "-//W3C//DTD SVG 20010904//EN"
 "http://www.w3.org/TR/2001/REC-SVG-20010904/DTD/svg10.dtd">
<svg version="1.0" xmlns="http://www.w3.org/2000/svg"
 width="1096.000000pt" height="471.000000pt" viewBox="0 0 1096.000000 471.000000"
 preserveAspectRatio="xMidYMid meet">

<g transform="translate(0.000000,471.000000) scale(0.100000,-0.100000)"
fill="#000000" stroke="none">
<path d="M6993 4660 c-203 -22 -323 -105 -468 -325 -169 -256 -470 -815 -619
-1149 -154 -344 -300 -754 -371 -1041 -34 -134 -41 -153 -68 -175 -139 -112
-274 -236 -461 -425 l-218 -220 7 45 c13 85 96 401 142 543 55 173 159 442
178 461 8 7 67 23 132 35 303 55 319 60 349 107 10 14 18 45 18 69 2 88 -63
110 -234 80 -52 -9 -110 -19 -128 -22 l-32 -6 35 84 c39 92 222 449 362 709
l89 165 -49 3 c-94 6 -244 -15 -302 -42 -172 -79 -317 -318 -582 -960 l-28
-70 -150 -46 c-83 -25 -169 -56 -192 -68 -65 -34 -92 -88 -79 -158 10 -53 51
-67 137 -49 35 7 88 22 118 34 30 11 56 19 57 18 2 -1 -20 -63 -47 -137 -122
-330 -245 -773 -290 -1045 -41 -243 -27 -487 31 -545 43 -43 105 -18 166 68
271 384 604 780 835 993 53 49 98 89 101 89 2 0 -3 -46 -10 -103 -9 -61 -15
-193 -16 -332 -1 -256 4 -280 63 -305 26 -11 35 -10 57 5 33 21 60 82 164 364
108 294 155 406 244 577 179 343 424 686 635 887 57 54 88 77 106 77 22 0 25
-4 25 -39 0 -22 -38 -156 -85 -303 -155 -477 -238 -813 -270 -1093 -36 -309
-6 -475 85 -475 46 0 83 40 204 224 227 342 408 559 748 898 l228 227 0 -704
0 -705 225 0 225 0 0 950 0 950 -225 0 -225 0 0 -182 c0 -142 -3 -179 -12
-170 -22 22 -73 13 -119 -20 -119 -85 -442 -396 -652 -627 -37 -40 -67 -67
-67 -59 0 44 143 512 290 948 120 356 149 460 157 565 5 77 4 82 -21 112 -35
42 -78 50 -153 28 -78 -22 -169 -73 -278 -155 -224 -170 -404 -374 -628 -712
-50 -76 -92 -137 -93 -135 -12 12 238 665 359 937 160 361 493 984 694 1297
18 29 33 55 33 58 0 6 -30 5 -127 -5z"/>
<path d="M1883 2790 c-118 -31 -180 -67 -269 -155 -70 -68 -89 -95 -132 -185
-88 -180 -122 -353 -122 -615 0 -302 46 -513 152 -693 53 -90 163 -194 249
-235 105 -49 167 -62 304 -62 104 0 131 4 205 28 159 52 275 154 359 316 82
158 120 331 128 581 15 478 -125 829 -387 969 -131 70 -334 91 -487 51z m276
-360 c41 -28 75 -101 93 -195 18 -97 18 -722 0 -820 -26 -142 -78 -208 -174
-221 -98 -14 -171 49 -204 176 -21 83 -32 670 -15 816 18 151 59 233 131 263
42 18 132 8 169 -19z"/>
<path d="M10130 2795 c-200 -45 -351 -185 -440 -409 -113 -282 -131 -760 -39
-1068 37 -124 95 -226 178 -309 112 -112 254 -169 418 -169 126 0 266 55 354
137 27 25 51 44 53 42 2 -2 22 -41 45 -86 l41 -83 95 0 95 0 0 485 0 485 -310
0 -310 0 0 -160 0 -160 111 0 112 0 -6 -54 c-14 -137 -110 -255 -207 -256
-120 -1 -191 84 -220 262 -16 103 -23 417 -11 576 13 187 32 273 74 342 37 62
83 90 145 90 119 0 172 -77 188 -275 l7 -85 220 0 220 0 -6 93 c-22 308 -162
508 -412 587 -91 29 -298 37 -395 15z"/>
<path d="M7 2773 c-2 -5 96 -264 219 -578 l223 -570 1 -372 0 -373 230 0 230
0 0 384 0 383 245 556 c135 305 245 560 245 566 0 17 -384 15 -397 -1 -6 -7
-70 -170 -143 -363 -73 -192 -136 -354 -141 -358 -4 -5 -32 71 -64 170 -31 98
-84 264 -118 368 l-62 190 -232 3 c-127 1 -233 -1 -236 -5z"/>
<path d="M2882 2043 c4 -819 1 -782 73 -928 83 -171 237 -259 479 -272 277
-15 498 90 591 281 72 148 69 110 73 924 l3 732 -188 -2 -188 -3 -5 -710 c-5
-753 -5 -739 -53 -809 -22 -31 -88 -65 -127 -66 -74 0 -144 42 -176 107 -18
36 -19 81 -24 758 l-5 720 -228 3 -228 2 3 -737z"/>
<path d="M8200 1830 l0 -950 180 0 180 0 2 524 3 524 267 -522 266 -521 186
-3 186 -2 -2 947 -3 948 -180 0 -180 0 -5 -504 -5 -504 -254 494 c-140 272
-258 500 -264 507 -7 9 -58 12 -193 12 l-184 0 0 -950z"/>
<path d="M255 797 c-90 -30 -161 -91 -204 -176 -90 -176 -54 -426 78 -542 107
-95 308 -104 406 -18 l35 31 10 -29 c6 -15 13 -34 15 -40 3 -9 25 -13 65 -13
l60 0 0 220 0 220 -180 0 -180 0 0 -80 0 -80 65 0 c59 0 65 -2 65 -21 0 -11
-13 -34 -29 -50 -24 -23 -38 -29 -73 -29 -91 0 -127 61 -128 215 0 114 11 163
45 202 19 23 32 28 68 28 54 0 82 -22 99 -78 l12 -39 85 6 c48 4 100 9 117 12
31 6 32 6 22 42 -25 92 -84 164 -166 203 -59 28 -224 37 -287 16z"/>
<path d="M8039 797 c-176 -50 -280 -213 -266 -421 7 -109 36 -182 99 -252 96
-105 236 -145 390 -113 182 39 298 192 298 393 -1 175 -72 301 -207 368 -60
29 -77 33 -167 35 -60 2 -120 -3 -147 -10z m192 -188 c34 -34 51 -89 57 -180
9 -153 -39 -249 -125 -249 -82 0 -131 105 -120 260 9 131 47 190 124 190 30 0
49 -6 64 -21z"/>
<path d="M9674 801 c-169 -43 -264 -191 -264 -410 0 -180 86 -317 233 -368 36
-12 81 -18 147 -18 88 0 101 3 162 33 79 39 129 93 158 169 32 86 30 89 -47
96 -38 4 -88 7 -113 7 l-45 0 -18 -50 c-22 -61 -63 -87 -120 -76 -67 13 -96
75 -96 211 -1 104 10 158 37 194 63 86 163 48 187 -71 l5 -28 93 0 c50 0 103
3 116 7 21 5 22 10 17 46 -17 104 -87 196 -181 238 -38 18 -72 23 -145 25 -52
2 -109 -1 -126 -5z"/>
<path d="M802 498 c4 -342 8 -361 79 -422 60 -51 134 -71 260 -71 101 0 109 2
175 35 55 28 74 45 99 84 l30 49 3 314 3 313 -95 0 -96 0 0 -274 c0 -151 -3
-282 -6 -291 -17 -44 -132 -61 -175 -26 l-24 19 -3 286 -3 286 -125 0 -126 0
4 -302z"/>
<path d="M1580 405 l0 -395 120 0 120 0 0 395 0 395 -120 0 -120 0 0 -395z"/>
<path d="M2086 658 c-113 -360 -196 -631 -196 -639 0 -6 40 -9 97 -7 l97 3 23
77 24 78 104 0 104 0 23 -78 24 -77 122 -3 c67 -1 122 0 122 4 0 4 -55 182
-122 395 l-122 389 -127 0 -128 0 -45 -142z m179 -198 c15 -52 30 -101 32
-107 4 -10 -12 -13 -62 -13 -50 0 -66 3 -62 13 2 6 17 56 32 110 15 53 29 96
31 95 1 -2 15 -46 29 -98z"/>
<path d="M2860 405 l0 -397 208 4 c226 5 254 11 337 68 114 79 176 254 146
412 -25 128 -99 225 -210 277 -54 25 -63 26 -268 29 l-213 4 0 -397z m379 190
c67 -57 88 -215 41 -310 -32 -62 -65 -87 -129 -93 l-51 -5 0 217 0 216 54 0
c44 0 60 -5 85 -25z"/>
<path d="M3590 405 l0 -395 295 0 295 0 0 95 0 95 -175 0 -175 0 0 65 0 65
140 0 140 0 0 85 0 85 -140 0 -140 0 0 60 0 60 175 0 175 0 0 90 0 90 -295 0
-295 0 0 -395z"/>
<path d="M4720 405 l0 -395 95 0 95 0 2 275 3 275 76 -273 76 -272 81 -3 80
-3 15 53 c9 29 42 151 74 271 l58 219 5 -269 5 -268 118 -3 117 -3 0 396 0
395 -167 0 -168 0 -55 -204 c-30 -113 -56 -203 -58 -201 -2 2 -30 93 -61 202
l-58 198 -166 3 -167 2 0 -395z"/>
<path d="M5821 418 c-68 -211 -126 -389 -129 -395 -3 -10 21 -13 100 -13 l104
0 25 78 25 77 111 3 110 3 23 -81 23 -80 130 0 c118 0 129 1 125 18 -3 9 -61
187 -129 395 l-123 377 -136 0 -135 0 -124 -382z m269 36 c16 -54 30 -102 30
-106 0 -5 -30 -8 -66 -8 -57 0 -65 2 -60 18 35 122 60 202 63 199 1 -2 16 -48
33 -103z"/>
<path d="M6530 405 l0 -395 290 0 290 0 0 100 0 100 -160 0 -160 0 0 295 0
295 -130 0 -130 0 0 -395z"/>
<path d="M7170 405 l0 -395 290 0 290 0 0 100 0 100 -160 0 -160 0 0 295 0
295 -130 0 -130 0 0 -395z"/>
<path d="M8630 405 l0 -395 130 0 130 0 0 151 0 150 42 -3 42 -3 59 -147 59
-148 140 0 c129 0 140 1 133 18 -3 9 -36 86 -73 171 -63 146 -65 155 -48 165
87 50 132 131 123 220 -10 102 -63 165 -166 196 -56 18 -93 20 -317 20 l-254
0 0 -395z m441 214 c28 -14 41 -53 29 -84 -13 -35 -66 -55 -145 -55 l-65 0 0
75 0 75 81 0 c44 0 89 -5 100 -11z"/>
<path d="M10306 416 c-69 -211 -126 -389 -126 -395 0 -8 31 -11 101 -9 l101 3
25 78 24 78 111 -3 112 -3 23 -77 24 -78 129 0 c72 0 130 1 130 3 0 1 -58 177
-129 392 l-129 390 -135 3 -136 3 -125 -385z m242 -74 c-33 -2 -63 -1 -66 2
-5 5 44 188 56 210 3 6 20 -39 37 -100 l32 -109 -59 -3z"/>
</g>
</svg>
